<svg width="896" height="896" viewBox="0 0 896 896" fill="none" xmlns="http://www.w3.org/2000/svg">
<g clip-path="url(#clip0_213_7)">
<path d="M515.697 320.244C503.868 326.232 492.319 332.603 480.915 339.384C467.984 347.071 443.88 361.598 432.33 370.301C418.625 380.628 397.642 396.07 403.069 416.493C409.491 440.659 444.002 450.28 464.352 456.152C496.308 465.373 539.105 474.399 569.986 456.428C586.534 446.798 595.747 426.625 584.709 409.132C566.526 380.315 520.634 371.846 489.656 374.258C461.025 376.487 431.979 388.608 410.246 407.384C390.347 424.575 366.987 460.014 389.451 484.953C411.197 509.096 455.3 509.555 484.411 505.933C510.828 502.646 583.38 483.02 568.054 441.522C556.578 410.448 510.654 399.292 482.111 397.354C446.703 394.95 385.234 403.693 370.679 443.546C360.577 471.208 388.454 490.264 410.614 497.467C456.64 512.428 513.214 508.767 558.944 494.799C576.786 489.349 630.931 462.464 586.549 446.674C533.933 427.955 470.626 447.585 423.405 471.519C385.938 490.509 346.403 516.506 319.61 549.456C313.312 557.202 303.37 568.718 308.016 580.466C315.764 600.054 354.837 602.524 370.495 604.206C412.771 608.748 466.324 610.145 506.495 593.348C514.856 589.852 528.771 581.29 516.433 570.344C490.03 546.921 440.54 543.939 407.946 544.856C380.578 545.626 358.722 549.893 333.597 560.038C320.711 565.241 303.19 573.289 296.146 587.091C277.093 624.425 406.095 619.944 417.608 619.849C442.999 619.639 479.006 617.691 504.471 614.512C517.311 612.909 547.193 608.057 560.969 602.182C566.31 599.904 574.465 594.182 565.017 589.299C542.578 577.703 506.946 578.664 483.123 577.981C434.695 576.594 385.773 579.703 338.106 588.563C332.994 589.513 313.268 592.793 306.544 597.581C297.565 603.975 326.114 608.74 337.001 610.463C392.316 619.217 448.939 620.967 504.839 620.585C530.131 620.412 566.779 619.188 592.438 617.272C602.555 616.517 612.652 615.458 622.711 614.144C629.102 613.309 635.524 612.46 641.759 610.831C643.831 610.29 646.927 609.798 647.372 607.703C648.94 600.308 575.919 598.428 574.587 598.409C550.886 598.066 531.444 598.517 507.875 601.354C485.531 604.043 452.908 607.78 435.275 624.45C428.421 630.928 428.633 639.757 437.483 644.509C463.549 658.506 505.709 653.072 532.996 650.858C562.362 648.475 585.84 645.136 614.338 638.252C636.137 632.986 669.174 625.266 685.006 606.783C704.415 584.123 657.414 573.404 645.807 571.264C605.29 563.795 560.829 565.826 520.666 574.577C519.789 574.768 484.61 582.778 504.839 586.631C540.878 593.496 581.905 589.046 617.835 584.147C636.154 581.648 673.354 579.569 687.031 563.719C700.75 547.82 641.361 543.503 637.434 543.659C616.865 544.478 591.614 551.198 581.856 571.54C568.425 599.542 603.508 611.609 624.828 611.015C674.2 609.641 762.445 545.232 712.335 492.038C694.662 473.277 666.335 465.437 641.299 465.078C624.864 464.842 584.57 470.807 584.709 495.075C584.806 512.148 613.069 516.993 624.644 518.447C656.171 522.408 693.001 517.151 719.328 498.296C744.287 480.42 742.562 455.071 718.5 436.921C686.955 413.125 641.471 403.554 603.02 411.616C581.207 416.19 551.362 429.586 549.375 455.6C546.834 488.861 595.563 491.051 617.467 489.186C647.211 486.653 681.469 476.344 704.33 456.244C733.863 430.277 716.466 399.416 686.755 383.827C656.119 367.754 618.6 363.988 584.617 367.265C568.617 368.807 509.04 378.071 514.04 406.555C517.476 426.13 554.523 422.895 566.674 421.278C593.671 417.686 644.693 404.809 653.813 373.89C660.75 350.37 631.365 334.241 613.694 328.618C577.224 317.014 533.743 324.658 503.919 348.953C493.128 357.743 464.397 391.553 493.981 399.01C508.212 402.597 530.812 397.431 543.302 392.385C557.267 386.742 587.025 371.206 583.329 350.794C579.148 327.708 530.803 327.012 515.329 326.409C461.711 324.32 403.958 334.445 357.981 363.492C339.272 375.312 294.94 413.576 322.003 438.577C346.782 461.468 395.781 443.297 419.632 428.823C439.22 416.936 469.842 390.599 459.199 363.492C445.587 328.825 389.051 323.482 358.625 327.422C325.133 331.759 294.337 348.502 270.934 372.601C259.871 383.994 230.854 422.342 263.02 429.191C283.645 433.583 308.86 423.336 325.223 411.524C340.273 400.661 356.399 378.2 332.861 366.62C309.868 355.31 278.339 357.142 253.911 360.731C235.937 363.373 154.139 379.633 166.588 413.549C176.626 440.898 231.754 441.587 253.451 442.258C271.237 442.808 297.35 441.375 315.102 438.577C330.541 436.143 356.742 432.107 367.919 418.794C383.329 400.437 329.786 395.977 325.223 395.79C282.919 394.053 240.905 409.569 209.099 437.473C200.594 444.934 177.144 467.785 192.72 480.352C215.23 498.514 261.357 486.798 284.92 478.328C289.445 476.701 343.218 453.037 320.807 440.969C297.582 428.464 260.181 448.465 241.305 460.477C223.366 471.892 196.854 491.081 191.524 513.386C185.695 537.78 233.615 531.112 244.617 529.305C267.242 525.589 290.622 518.115 310.869 507.221C331.499 496.12 304.171 496.607 295.594 497.651C271.319 500.608 248.574 510.352 230.631 527.189C214.659 542.176 198.128 570.014 217.933 589.299C232.095 603.091 256.416 604.722 274.799 602.55C284.937 601.352 325.779 593.309 321.175 575.405C317.292 560.306 289.168 557.734 277.559 557.922C249.294 558.38 222.671 573.713 205.234 595.557C200.441 601.561 186.598 620.321 198.793 626.842C218.492 637.375 253.373 629.668 273.786 626.198C293.14 622.908 315.815 619.204 332.861 608.715C350.654 597.765 314.733 597.531 310.501 598.133C287.914 601.348 264.65 614.696 254.923 636.136C243.049 662.306 282.267 661.447 297.618 660.52C326.17 658.795 355.031 650.974 380.801 638.62C391.404 633.537 420.019 614.78 390.463 612.948C368.52 611.587 346.833 620.988 328.904 632.823C323.062 636.679 287.264 664.117 314.181 666.593C344.608 669.392 381.475 651.276 400.861 628.682C431.731 592.704 420.406 544.329 395.892 508.877C381.701 488.356 362.665 472.912 340.222 462.225C332.122 458.368 326.883 456.487 318.598 454.312C316.056 453.644 308.361 453.536 310.869 452.748C321.107 449.53 329.251 441.403 335.897 433.24C359.097 404.747 370.172 368.07 368.011 331.47C366.239 301.464 355.477 272.625 330.376 254.637C303.89 235.655 261.633 224.362 229.159 229.516C206.944 233.043 190.789 250.221 194.008 273.684C199.671 314.953 245.345 339.107 282.896 341.316C315.264 343.22 363.454 329.413 376.016 295.032C387.483 263.65 352.055 236.539 327.248 226.94C298.597 215.853 264.579 216.708 238.084 233.197C216.441 246.667 198.665 279.589 221.061 301.289C247.138 326.554 345.581 314.115 325.499 264.114C318.176 245.881 297.01 234.914 278.479 232.553C259.668 230.157 235.307 240.242 238.176 263.194C243.213 303.491 323.711 312.693 344.179 282.15C353.408 268.376 347.806 250.811 336.909 239.914C321.222 224.227 292.201 216.036 270.566 221.787C256.648 225.487 249.214 238.761 252.715 252.704C258.87 277.218 287.409 287.338 310.041 284.542C326.993 282.448 349.715 272.359 354.116 253.809C360.106 228.568 324.697 213.535 306.268 208.537C286.441 203.159 255.248 199.256 236.796 211.389C221.985 221.128 240.341 229.091 247.378 234.117" stroke="#FAFAFA" stroke-width="100" stroke-linecap="round"/>
<path d="M321.024 642.368V342.72H221.376V642.4H320.992L321.024 642.368ZM271.2 301.76C305.92 301.76 327.584 278.72 327.584 249.952C326.944 220.576 305.92 198.208 271.904 198.208C237.76 198.208 215.52 220.608 215.52 249.952C215.52 278.752 237.152 301.792 270.592 301.792L271.2 301.76ZM680.224 642.368V470.56C680.224 378.496 631.072 335.648 565.568 335.648C512.64 335.648 488.96 364.768 475.776 385.152V342.656H376.16C377.472 370.816 376.16 642.368 376.16 642.368H475.776V475.008C475.776 466.048 476.416 457.088 479.04 450.752C486.208 432.832 502.624 414.304 530.112 414.304C566.176 414.304 580.672 441.76 580.672 482.048V642.4H680.256L680.224 642.368ZM448 0C695.424 0 896 200.544 896 448C896 695.424 695.424 896 448 896C200.544 896 0 695.424 0 448C0 200.544 200.544 0 448 0Z" fill="#1E84BA"/>
</g>
<defs>
<clipPath id="clip0_213_7">
<rect width="896" height="896" fill="white"/>
</clipPath>
</defs>
</svg>
